<svg width="42" height="42" viewBox="0 0 42 42" fill="none" xmlns="http://www.w3.org/2000/svg">
<g filter="url(#filter0_d)">
<path d="M20.996 15.9979C18.2417 15.9979 15.9939 18.2456 15.9939 21C15.9939 23.7544 18.2417 26.0021 20.996 26.0021C23.7503 26.0021 25.998 23.7544 25.998 21C25.998 18.2456 23.7503 15.9979 20.996 15.9979ZM35.9983 21C35.9983 18.9286 36.0171 16.876 35.9008 14.8083C35.7844 12.4067 35.2366 10.2753 33.4804 8.51907C31.7205 6.75913 29.5929 6.21501 27.1913 6.09868C25.1199 5.98235 23.0673 6.00112 20.9997 6.00112C18.9284 6.00112 16.8758 5.98235 14.8082 6.09868C12.4066 6.21501 10.2752 6.76288 8.51902 8.51907C6.75911 10.279 6.21501 12.4067 6.09868 14.8083C5.98235 16.8797 6.00112 18.9324 6.00112 21C6.00112 23.0676 5.98235 25.124 6.09868 27.1917C6.21501 29.5933 6.76287 31.7247 8.51902 33.4809C10.2789 35.2409 12.4066 35.785 14.8082 35.9013C16.8795 36.0176 18.9321 35.9989 20.9997 35.9989C23.0711 35.9989 25.1237 36.0176 27.1913 35.9013C29.5929 35.785 31.7243 35.2371 33.4804 33.4809C35.2403 31.721 35.7844 29.5933 35.9008 27.1917C36.0208 25.124 35.9983 23.0714 35.9983 21ZM20.996 28.6964C16.7369 28.6964 13.2997 25.2591 13.2997 21C13.2997 16.7409 16.7369 13.3035 20.996 13.3035C25.255 13.3035 28.6923 16.7409 28.6923 21C28.6923 25.2591 25.255 28.6964 20.996 28.6964ZM29.0075 14.7858C28.0131 14.7858 27.2101 13.9828 27.2101 12.9883C27.2101 11.9939 28.0131 11.1909 29.0075 11.1909C30.0019 11.1909 30.8049 11.9939 30.8049 12.9883C30.8052 13.2245 30.7589 13.4583 30.6687 13.6765C30.5785 13.8948 30.4461 14.093 30.2791 14.26C30.1122 14.427 29.9139 14.5594 29.6957 14.6496C29.4775 14.7398 29.2436 14.7861 29.0075 14.7858Z" fill="#F6F6F6"/>
</g>
<defs>
<filter id="filter0_d" x="0" y="0" width="42" height="42" filterUnits="userSpaceOnUse" color-interpolation-filters="sRGB">
<feFlood flood-opacity="0" result="BackgroundImageFix"/>
<feColorMatrix in="SourceAlpha" type="matrix" values="0 0 0 0 0 0 0 0 0 0 0 0 0 0 0 0 0 0 127 0"/>
<feOffset/>
<feGaussianBlur stdDeviation="3"/>
<feColorMatrix type="matrix" values="0 0 0 0 0.821128 0 0 0 0 0.606722 0 0 0 0 0 0 0 0 1 0"/>
<feBlend mode="normal" in2="BackgroundImageFix" result="effect1_dropShadow"/>
<feBlend mode="normal" in="SourceGraphic" in2="effect1_dropShadow" result="shape"/>
</filter>
</defs>
</svg>
