<svg width="42" height="30" viewBox="0 0 42 30" fill="none" xmlns="http://www.w3.org/2000/svg">
<g filter="url(#filter0_d)">
<path d="M35.3122 7.21896C35.5218 6.51571 35.3122 6 34.3211 6H31.0379C30.2025 6 29.8207 6.44614 29.6111 6.93615C29.6111 6.93615 27.9418 11.0482 25.5764 13.7145C24.8128 14.4903 24.464 14.7353 24.0478 14.7353C23.8397 14.7353 23.5373 14.4903 23.5373 13.7871V7.21896C23.5373 6.37506 23.2963 6 22.6001 6H17.441C16.92 6 16.6056 6.39019 16.6056 6.76223C16.6056 7.56075 17.7883 7.74525 17.9096 9.99563V14.8775C17.9096 15.9467 17.7195 16.1418 17.3003 16.1418C16.1879 16.1418 13.4811 12.0146 11.8747 7.29004C11.5618 6.37204 11.2459 6.00151 10.4075 6.00151H7.12584C6.18714 6.00151 6 6.44766 6 6.93766C6 7.81785 7.11236 12.1734 11.1815 17.934C13.8943 21.8676 17.7135 24 21.1928 24C23.2783 24 23.5358 23.5266 23.5358 22.71V19.7367C23.5358 18.79 23.7349 18.5994 24.3951 18.5994C24.8802 18.5994 25.7156 18.8474 27.6634 20.7424C29.8881 22.9897 30.2564 23.9985 31.5065 23.9985H34.7882C35.7254 23.9985 36.194 23.5251 35.9245 22.5905C35.6295 21.6604 34.5666 20.3068 33.1563 18.7053C32.3898 17.7918 31.2445 16.8088 30.8956 16.3173C30.4091 15.6836 30.5498 15.4038 30.8956 14.8412C30.8971 14.8427 34.896 9.15325 35.3122 7.21896Z" fill="#F6F6F6"/>
</g>
<defs>
<filter id="filter0_d" x="0" y="0" width="42" height="30" filterUnits="userSpaceOnUse" color-interpolation-filters="sRGB">
<feFlood flood-opacity="0" result="BackgroundImageFix"/>
<feColorMatrix in="SourceAlpha" type="matrix" values="0 0 0 0 0 0 0 0 0 0 0 0 0 0 0 0 0 0 127 0"/>
<feOffset/>
<feGaussianBlur stdDeviation="3"/>
<feColorMatrix type="matrix" values="0 0 0 0 0.821128 0 0 0 0 0.606722 0 0 0 0 0 0 0 0 1 0"/>
<feBlend mode="normal" in2="BackgroundImageFix" result="effect1_dropShadow"/>
<feBlend mode="normal" in="SourceGraphic" in2="effect1_dropShadow" result="shape"/>
</filter>
</defs>
</svg>
